PathFileType	4	(X/Y/Z)	Run_200 02
DataRate	CameraRate	NumFrames	NumMarkers	Units	OrigDataRate	OrigDataStartFrame	OrigNumFrames
120	120	4	42	mm	120	183	128
Frame#	Time	LASI			RASI			LPSI			RPSI			RTH1			RTH2			RTH3			LTH1			LTH2			LTH3			RTB1			RTB2			RTB3			LTB1			LTB2			LTB3			RCAL			RTOE			RMT5			LCAL			LTOE			LMT5			LACR			RACR			CLAV			C7			RUA1			RUA2			RUA3			RLEL			RMEL			LUA1			LUA2			LUA3			LLEL			LMEL			RFAsuperior			RFAradius			RFAulna			LFAsuperior			LFAradius			LFAulna			
		X1	Y1	Z1	X2	Y2	Z2	X3	Y3	Z3	X4	Y4	Z4	X5	Y5	Z5	X6	Y6	Z6	X7	Y7	Z7	X8	Y8	Z8	X9	Y9	Z9	X10	Y10	Z10	X11	Y11	Z11	X12	Y12	Z12	X13	Y13	Z13	X14	Y14	Z14	X15	Y15	Z15	X16	Y16	Z16	X17	Y17	Z17	X18	Y18	Z18	X19	Y19	Z19	X20	Y20	Z20	X21	Y21	Z21	X22	Y22	Z22	X23	Y23	Z23	X24	Y24	Z24	X25	Y25	Z25	X26	Y26	Z26	X27	Y27	Z27	X28	Y28	Z28	X29	Y29	Z29	X30	Y30	Z30	X31	Y31	Z31	X32	Y32	Z32	X33	Y33	Z33	X34	Y34	Z34	X35	Y35	Z35	X36	Y36	Z36	X37	Y37	Z37	X38	Y38	Z38	X39	Y39	Z39	X40	Y40	Z40	X41	Y41	Z41	X42	Y42	Z42	

183	1.65	903.325011	1086.119677	-464.365205	909.570834	1097.314203	-205.532072	727.634861	1135.573964	-368.459614	728.139514	1130.446745	-285.002423	883.2358829999999	932.213117	-150.277006	980.011018	852.740158	-161.77185	956.357615	725.048028	-190.753063	807.056772	879.177332	-505.960526	839.5460399999999	748.944472	-486.541331	747.293864	651.065575	-466.502718	1063.603345	458.079251	-272.787076	1027.321791	396.878909	-204.760986	1016.645299	298.732209	-275.723378	722.112934	412.172979	-396.319174	655.528748	346.240291	-444.568715	615.332917	242.172895	-375.174486	875.262684	165.726397	-291.028794	1102.304602	111.25358	-302.782295	1029.742557	89.144721	-214.769101	450.086306	167.474374	-361.739505	662.52694	69.494209	-343.521019	586.702718	64.456029	-430.742315	947.936136	1558.031703	-516.146749	875.066658	1575.123992	-179.19945	952.915983	1514.120357	-300.160876	841.526585	1602.688756	-362.492178	804.502569	1506.29298	-107.458747	760.071604	1428.216819	-109.828304	691.676868	1468.665811	-101.817675	591.75814	1369.005128	-61.105876	577.366111	1372.235268	-142.751868	942.5283439999999	1462.013683	-586.488274	950.51402	1389.775203	-574.255018	858.5374839999999	1373.733719	-600.2583059999999	870.8930339999999	1209.754692	-644.843443	811.77403	1198.885126	-578.454345	657.0403700000001	1281.679766	-56.06652	769.187019	1159.383386	-130.696032	716.482334	1128.212702	-89.991652	959.912208	1222.924591	-603.252682	1069.154966	1265.368451	-463.880223	1088.162503	1198.546784	-485.51385	
184	1.658333	905.625912	1089.186987	-464.024031	910.72272	1101.821833	-205.085181	729.58198	1139.147489	-368.801866	730.068144	1134.604233	-285.270489	882.440873	935.716643	-149.391115	977.5394690000001	854.306028	-160.309733	951.822106	726.595633	-190.63853	805.912701	882.882445	-505.703079	835.17112	752.317822	-486.395408	740.665526	656.349755	-466.735275	1066.972576	458.425121	-272.271262	1034.284644	394.565854	-204.734116	1030.332176	296.218881	-276.337053	711.625038	417.345988	-397.142166	644.357247	352.192485	-445.561826	604.201825	247.688909	-376.466382	898.026741	154.478559	-293.675106	1128.247427	115.040049	-305.292747	1056.939482	86.968739	-217.924592	439.47692	175.954921	-362.603556	647.517784	69.22913	-344.043972	571.513168	66.17981399999999	-430.412471	949.628164	1561.885618	-514.842077	875.736276	1579.701453	-178.684293	953.347907	1518.19835	-299.296105	842.396658	1606.451312	-362.195749	804.190661	1512.343758	-107.3889	758.878662	1434.701971	-109.92667	690.9440489999999	1476.348591	-102.930106	589.309035	1378.012196	-62.500092	575.909684	1381.239282	-144.308448	944.637463	1465.900552	-585.120371	951.667064	1393.861509	-573.1012030000001	859.599523	1378.947681	-599.857475	870.356287	1214.738539	-644.680778	811.040542	1204.306773	-578.477457	653.644663	1290.102563	-56.986048	765.582465	1166.885468	-130.92303	712.172672	1135.967947	-90.99396299999999	959.073135	1228.583548	-602.987426	1067.277089	1273.188288	-463.588764	1086.648216	1205.772138	-483.706208	
185	1.666667	908.055106	1092.106884	-463.697389	911.9495910000001	1105.802932	-204.707768	731.597521	1142.47929	-369.229607	731.9668349999999	1138.323528	-285.605062	881.735068	938.634735	-148.644467	974.906115	855.115997	-158.976154	946.9417989999999	727.48509	-190.55836	805.1580760000001	886.543839	-505.667171	831.436645	755.632096	-486.472417	734.947016	661.584378	-467.033764	1069.561535	458.54969	-271.95538	1040.544323	392.395881	-204.75907	1043.131652	294.206204	-276.959297	702.129898	422.4807	-398.059647	634.1553699999999	358.169113	-446.69181	593.874638	253.248246	-377.947865	920.1142630000001	144.444405	-295.787745	1152.538508	119.937929	-307.50191	1083.158546	86.321895	-220.867296	429.706932	184.704169	-363.628475	632.601143	68.92742	-344.579022	556.566931	68.097154	-430.232533	951.1434400000001	1565.380634	-513.558101	876.564255	1583.906999	-178.246751	953.81657	1521.912069	-298.425255	843.211307	1609.82803	-361.782978	804.097617	1517.955262	-107.217117	758.016044	1440.666015	-109.893336	690.482795	1483.324585	-103.783255	587.300665	1386.195784	-63.801986	574.820974	1389.387515	-145.738136	946.181606	1469.523398	-583.901732	952.48898	1397.610019	-572.1188059999999	860.291078	1383.820606	-599.507217	869.614317	1219.381518	-644.576285	810.094029	1209.354781	-578.538681	650.852472	1297.88347	-57.763625	762.6650509999999	1173.758908	-131.064788	708.755219	1143.126441	-91.609599	958.054538	1233.717872	-602.7631260000001	1065.269794	1280.132273	-463.263677	1084.975284	1212.257195	-482.130392	
186	1.675	910.568121	1094.798842	-463.323685	913.211197	1109.134633	-204.410524	733.643138	1145.513307	-369.67846	733.815085	1141.515028	-285.985975	881.212406	941.034901	-148.012809	972.267126	855.268784	-157.801687	942.104979	727.910845	-190.601448	804.824788	890.033619	-505.826219	828.406975	758.735905	-486.726939	730.217052	666.552157	-467.345667	1071.50882	458.483556	-271.72074	1045.846389	390.507863	-204.737073	1054.876436	292.778763	-277.480982	693.747132	427.396723	-399.080377	625.022802	364.006707	-447.922978	584.388013	258.737322	-379.572243	941.073625	135.780088	-297.319033	1174.72975	125.732417	-309.279442	1107.812154	87.053135	-223.509429	420.820148	193.695663	-364.734756	617.791159	68.662346	-345.152548	541.95294	70.48571699999999	-430.553835	952.445414	1568.510002	-512.2580380000001	877.5110110000001	1587.65872	-177.911706	954.287911	1525.169238	-297.566103	843.953862	1612.751177	-361.227247	804.174277	1523.109621	-106.971818	757.452098	1446.063697	-109.64654	690.259241	1489.529409	-104.444802	585.732072	1393.446601	-64.930987	574.126629	1396.592422	-146.947046	947.148382	1472.953559	-582.933908	952.943641	1401.07161	-571.323199	860.570724	1388.296051	-599.209603	868.712862	1223.646657	-644.5517599999999	808.974957	1213.95775	-578.593429	648.682505	1304.918126	-58.374396	760.450957	1179.939053	-131.104991	706.2217470000001	1149.580021	-91.875888	956.90131	1238.31981	-602.550161	1063.180594	1286.14452	-462.872847	1083.217725	1218.0247	-480.858415	
